<svg xmlns="http://www.w3.org/2000/svg" version="1.1" xmlns:xlink="http://www.w3.org/1999/xlink" xmlns:svgjs="http://svgjs.dev/svgjs" width="2000" height="267" viewBox="0 0 2000 267"><g transform="matrix(1,0,0,1,-1.2121212121212466,-0.6812182914042637)"><svg viewBox="0 0 396 53" data-background-color="#ffffff" preserveAspectRatio="xMidYMid meet" height="267" width="2000" xmlns="http://www.w3.org/2000/svg" xmlns:xlink="http://www.w3.org/1999/xlink"><g id="tight-bounds" transform="matrix(1,0,0,1,0.2400000000000091,0.13522310653343084)"><svg viewBox="0 0 395.52 52.72955378693315" height="52.72955378693315" width="395.52"><g><svg viewBox="0 0 469.38298750056185 62.57674829612219" height="52.72955378693315" width="395.52"><g transform="matrix(1,0,0,1,73.8629875005619,7.385872889038101)"><svg viewBox="0 0 395.5199999999999 47.80500251804599" height="47.80500251804599" width="395.5199999999999"><g><svg viewBox="0 0 395.5199999999999 47.80500251804599" height="47.80500251804599" width="395.5199999999999"><g><svg viewBox="0 0 395.5199999999999 47.80500251804599" height="47.80500251804599" width="395.5199999999999"><g transform="matrix(1,0,0,1,0,0)"><svg width="395.5199999999999" viewBox="2.6500000953674316 -35.5 297.83001708984375 36" height="47.80500251804599" data-palette-color="#398378"><path d="M17.4 0.5L17.4 0.5Q12.75 0.5 9.53-1.13 6.3-2.75 4.6-5.78 2.9-8.8 2.7-13.05L2.7-13.05Q2.65-15.1 2.65-17.45 2.65-19.8 2.7-21.95L2.7-21.95Q2.9-26.15 4.63-29.2 6.35-32.25 9.58-33.88 12.8-35.5 17.4-35.5L17.4-35.5Q20.8-35.5 23.5-34.6 26.2-33.7 28.1-32.13 30-30.55 31.05-28.45 32.1-26.35 32.15-23.9L32.15-23.9Q32.2-23.45 31.88-23.15 31.55-22.85 31.1-22.85L31.1-22.85 26.35-22.85Q25.8-22.85 25.45-23.13 25.1-23.4 24.95-24.05L24.95-24.05Q24.15-27.35 22.2-28.55 20.25-29.75 17.35-29.75L17.35-29.75Q14-29.75 12-27.88 10-26 9.85-21.7L9.85-21.7Q9.7-17.6 9.85-13.3L9.85-13.3Q10-9 12-7.13 14-5.25 17.35-5.25L17.35-5.25Q20.25-5.25 22.23-6.48 24.2-7.7 24.95-10.95L24.95-10.95Q25.1-11.65 25.45-11.9 25.8-12.15 26.35-12.15L26.35-12.15 31.1-12.15Q31.55-12.15 31.88-11.85 32.2-11.55 32.15-11.1L32.15-11.1Q32.1-8.65 31.05-6.55 30-4.45 28.1-2.88 26.2-1.3 23.5-0.4 20.8 0.5 17.4 0.5ZM61 0L39.3 0Q38.8 0 38.45-0.35 38.1-0.7 38.1-1.2L38.1-1.2 38.1-33.8Q38.1-34.3 38.45-34.65 38.8-35 39.3-35L39.3-35 43.95-35Q44.45-35 44.8-34.65 45.15-34.3 45.15-33.8L45.15-33.8 45.15-5.95 61-5.95Q61.55-5.95 61.9-5.6 62.25-5.25 62.25-4.7L62.25-4.7 62.25-1.2Q62.25-0.7 61.9-0.35 61.55 0 61 0L61 0ZM73 0L68.3 0Q67.8 0 67.45-0.35 67.1-0.7 67.1-1.2L67.1-1.2 67.1-33.8Q67.1-34.3 67.45-34.65 67.8-35 68.3-35L68.3-35 73-35Q73.55-35 73.87-34.65 74.2-34.3 74.2-33.8L74.2-33.8 74.2-1.2Q74.2-0.7 73.87-0.35 73.55 0 73 0L73 0ZM87.44 0L83.24 0Q82.74 0 82.39-0.35 82.04-0.7 82.04-1.2L82.04-1.2 82.04-33.75Q82.04-34.3 82.39-34.65 82.74-35 83.24-35L83.24-35 87.09-35Q87.79-35 88.12-34.68 88.44-34.35 88.54-34.2L88.54-34.2 102.94-11.8 102.94-33.75Q102.94-34.3 103.27-34.65 103.59-35 104.14-35L104.14-35 108.34-35Q108.89-35 109.24-34.65 109.59-34.3 109.59-33.75L109.59-33.75 109.59-1.25Q109.59-0.7 109.24-0.35 108.89 0 108.39 0L108.39 0 104.49 0Q103.79 0 103.49-0.35 103.19-0.7 103.04-0.8L103.04-0.8 88.69-22.7 88.69-1.2Q88.69-0.7 88.34-0.35 87.99 0 87.44 0L87.44 0ZM123.29 0L118.59 0Q118.09 0 117.74-0.35 117.39-0.7 117.39-1.2L117.39-1.2 117.39-33.8Q117.39-34.3 117.74-34.65 118.09-35 118.59-35L118.59-35 123.29-35Q123.84-35 124.17-34.65 124.49-34.3 124.49-33.8L124.49-33.8 124.49-1.2Q124.49-0.7 124.17-0.35 123.84 0 123.29 0L123.29 0ZM145.84 0.5L145.84 0.5Q141.19 0.5 137.96-1.13 134.74-2.75 133.04-5.78 131.34-8.8 131.14-13.05L131.14-13.05Q131.09-15.1 131.09-17.45 131.09-19.8 131.14-21.95L131.14-21.95Q131.34-26.15 133.06-29.2 134.79-32.25 138.01-33.88 141.24-35.5 145.84-35.5L145.84-35.5Q149.24-35.5 151.94-34.6 154.64-33.7 156.54-32.13 158.44-30.55 159.49-28.45 160.54-26.35 160.59-23.9L160.59-23.9Q160.64-23.45 160.31-23.15 159.99-22.85 159.54-22.85L159.54-22.85 154.79-22.85Q154.24-22.85 153.89-23.13 153.54-23.4 153.39-24.05L153.39-24.05Q152.59-27.35 150.64-28.55 148.69-29.75 145.79-29.75L145.79-29.75Q142.44-29.75 140.44-27.88 138.44-26 138.29-21.7L138.29-21.7Q138.14-17.6 138.29-13.3L138.29-13.3Q138.44-9 140.44-7.13 142.44-5.25 145.79-5.25L145.79-5.25Q148.69-5.25 150.66-6.48 152.64-7.7 153.39-10.95L153.39-10.95Q153.54-11.65 153.89-11.9 154.24-12.15 154.79-12.15L154.79-12.15 159.54-12.15Q159.99-12.15 160.31-11.85 160.64-11.55 160.59-11.1L160.59-11.1Q160.54-8.65 159.49-6.55 158.44-4.45 156.54-2.88 154.64-1.3 151.94-0.4 149.24 0.5 145.84 0.5ZM175.63 0L172.28 0Q171.53 0 171.11-0.43 170.69-0.85 170.53-1.5L170.53-1.5 164.58-33.55Q164.58-33.7 164.56-33.8 164.53-33.9 164.53-33.95L164.53-33.95Q164.53-34.4 164.86-34.7 165.19-35 165.58-35L165.58-35 169.98-35Q171.23-35 171.38-34L171.38-34 175.53-11.35 180.03-26Q180.19-26.4 180.56-26.83 180.94-27.25 181.69-27.25L181.69-27.25 184.38-27.25Q185.19-27.25 185.53-26.83 185.88-26.4 185.98-26L185.98-26 190.53-11.4 194.69-34Q194.83-35 196.08-35L196.08-35 200.48-35Q200.88-35 201.19-34.7 201.48-34.4 201.48-33.95L201.48-33.95Q201.48-33.9 201.48-33.8 201.48-33.7 201.44-33.55L201.44-33.55 195.48-1.5Q195.38-0.85 194.94-0.43 194.48 0 193.73 0L193.73 0 190.38 0Q189.63 0 189.21-0.4 188.78-0.8 188.63-1.25L188.63-1.25 183.03-17.95 177.44-1.25Q177.23-0.8 176.83-0.4 176.44 0 175.63 0L175.63 0ZM209.53 0L205.18 0Q204.78 0 204.46-0.3 204.13-0.6 204.13-1.05L204.13-1.05Q204.13-1.25 204.23-1.5L204.23-1.5 216.28-33.75Q216.43-34.25 216.86-34.63 217.28-35 218.03-35L218.03-35 223.48-35Q224.23-35 224.63-34.63 225.03-34.25 225.23-33.75L225.23-33.75 237.28-1.5Q237.33-1.25 237.33-1.05L237.33-1.05Q237.33-0.6 237.03-0.3 236.73 0 236.33 0L236.33 0 231.98 0Q231.28 0 230.96-0.33 230.63-0.65 230.53-0.95L230.53-0.95 228.18-7.05 213.33-7.05 210.98-0.95Q210.88-0.65 210.56-0.33 210.23 0 209.53 0L209.53 0ZM220.73-28.25L215.08-12.8 226.43-12.8 220.73-28.25ZM247.73 0L243.18 0Q242.68 0 242.33-0.35 241.98-0.7 241.98-1.2L241.98-1.2 241.98-33.75Q241.98-34.3 242.33-34.65 242.68-35 243.18-35L243.18-35 256.13-35Q262.18-35 265.68-32.2 269.18-29.4 269.18-24.05L269.18-24.05Q269.18-20.35 267.36-17.9 265.53-15.45 262.48-14.35L262.48-14.35 269.78-1.6Q269.93-1.3 269.93-1.05L269.93-1.05Q269.93-0.6 269.61-0.3 269.28 0 268.88 0L268.88 0 264.33 0Q263.48 0 263.03-0.45 262.58-0.9 262.33-1.35L262.33-1.35 255.88-13.2 248.93-13.2 248.93-1.2Q248.93-0.7 248.61-0.35 248.28 0 247.73 0L247.73 0ZM248.93-29.45L248.93-18.85 255.98-18.85Q259.03-18.85 260.53-20.23 262.03-21.6 262.03-24.1L262.03-24.1Q262.03-26.6 260.56-28.03 259.08-29.45 255.98-29.45L255.98-29.45 248.93-29.45ZM299.23 0L276.83 0Q276.33 0 275.98-0.35 275.63-0.7 275.63-1.2L275.63-1.2 275.63-33.75Q275.63-34.3 275.98-34.65 276.33-35 276.83-35L276.83-35 298.83-35Q299.38-35 299.73-34.65 300.08-34.3 300.08-33.75L300.08-33.75 300.08-30.45Q300.08-29.95 299.73-29.6 299.38-29.25 298.83-29.25L298.83-29.25 282.38-29.25 282.38-20.4 297.73-20.4Q298.28-20.4 298.63-20.08 298.98-19.75 298.98-19.2L298.98-19.2 298.98-16.1Q298.98-15.55 298.63-15.23 298.28-14.9 297.73-14.9L297.73-14.9 282.38-14.9 282.38-5.75 299.23-5.75Q299.78-5.75 300.13-5.4 300.48-5.05 300.48-4.5L300.48-4.5 300.48-1.2Q300.48-0.7 300.13-0.35 299.78 0 299.23 0L299.23 0Z" opacity="1" transform="matrix(1,0,0,1,0,0)" fill="#398378" class="undefined-text-0" data-fill-palette-color="primary" id="text-0"></path></svg></g></svg></g></svg></g></svg></g><g><svg viewBox="0 0 62.577373726111674 62.57674829612219" height="62.57674829612219" width="62.577373726111674"><g><svg version="1.0" xmlns="http://www.w3.org/2000/svg" xmlns:xlink="http://www.w3.org/1999/xlink" x="0" y="0" viewBox="0 0 100 99.9990005493164" enable-background="new 0 0 100 99.999" xml:space="preserve" width="62.577373726111674" height="62.57674829612219" class="icon-icon-0" data-fill-palette-color="accent" id="icon-0"><polygon points="87.457,42.199 57.801,42.199 57.801,12.543 42.2,12.543 42.2,42.199 12.544,42.199 12.544,57.8 42.2,57.8 	42.2,87.456 57.801,87.456 57.801,57.8 87.457,57.8 " fill="#398378" data-fill-palette-color="accent"></polygon><path d="M50 99.999C22.429 99.999 0 77.57 0 50 0 22.43 22.429 0 50 0c27.57 0 50 22.43 50 50C100 77.57 77.571 99.999 50 99.999L50 99.999zM50 5.4c-24.594 0-44.6 20.007-44.6 44.6 0 24.593 20.006 44.6 44.6 44.6 24.592 0 44.599-20.007 44.599-44.6C94.599 25.407 74.592 5.4 50 5.4L50 5.4z" fill="#398378" data-fill-palette-color="accent"></path></svg></g></svg></g></svg></g><defs></defs></svg><rect width="395.52" height="52.72955378693315" fill="none" stroke="none" visibility="hidden"></rect></g></svg></g></svg>